<?xml version="1.0" encoding="UTF-8" standalone="no"?>
<!-- Created with Inkscape (http://www.inkscape.org/) -->

<svg
   width="64"
   height="64"
   viewBox="0 0 16.933333 16.933333"
   version="1.1"
   id="svg5"
   sodipodi:docname="github-connection.svg"
   inkscape:version="1.1 (c4e8f9e, 2021-05-24)"
   xmlns:inkscape="http://www.inkscape.org/namespaces/inkscape"
   xmlns:sodipodi="http://sodipodi.sourceforge.net/DTD/sodipodi-0.dtd"
   xmlns="http://www.w3.org/2000/svg"
   xmlns:svg="http://www.w3.org/2000/svg">
  <sodipodi:namedview
     id="namedview1825"
     pagecolor="#505050"
     bordercolor="#ffffff"
     borderopacity="1"
     inkscape:pageshadow="0"
     inkscape:pageopacity="0"
     inkscape:pagecheckerboard="1"
     showgrid="false"
     inkscape:zoom="9.78125"
     inkscape:cx="32"
     inkscape:cy="31.948882"
     inkscape:window-width="1440"
     inkscape:window-height="790"
     inkscape:window-x="0"
     inkscape:window-y="25"
     inkscape:window-maximized="1"
     inkscape:current-layer="svg5" />
  <defs
     id="defs2" />
  <g
     id="layer1"
     style="fill:#ffffff;fill-opacity:1">
    <g
       id="g1314"
       transform="scale(0.03572946)"
       style="fill:#ffffff;fill-opacity:1" />
    <g
       id="g1316"
       transform="scale(0.03572946)"
       style="fill:#ffffff;fill-opacity:1" />
    <g
       id="g1318"
       transform="scale(0.03572946)"
       style="fill:#ffffff;fill-opacity:1" />
    <g
       id="g1320"
       transform="scale(0.03572946)"
       style="fill:#ffffff;fill-opacity:1" />
    <g
       id="g1322"
       transform="scale(0.03572946)"
       style="fill:#ffffff;fill-opacity:1" />
    <g
       id="g1324"
       transform="scale(0.03572946)"
       style="fill:#ffffff;fill-opacity:1" />
    <g
       id="g1326"
       transform="scale(0.03572946)"
       style="fill:#ffffff;fill-opacity:1" />
    <g
       id="g1328"
       transform="scale(0.03572946)"
       style="fill:#ffffff;fill-opacity:1" />
    <g
       id="g1330"
       transform="scale(0.03572946)"
       style="fill:#ffffff;fill-opacity:1" />
    <g
       id="g1332"
       transform="scale(0.03572946)"
       style="fill:#ffffff;fill-opacity:1" />
    <g
       id="g1334"
       transform="scale(0.03572946)"
       style="fill:#ffffff;fill-opacity:1" />
    <g
       id="g1336"
       transform="scale(0.03572946)"
       style="fill:#ffffff;fill-opacity:1" />
    <g
       id="g1338"
       transform="scale(0.03572946)"
       style="fill:#ffffff;fill-opacity:1" />
    <g
       id="g1340"
       transform="scale(0.03572946)"
       style="fill:#ffffff;fill-opacity:1" />
    <g
       id="g1342"
       transform="scale(0.03572946)"
       style="fill:#ffffff;fill-opacity:1" />
    <path
       d="M 8.4667077,0 C 3.7888518,0 0,3.8872013 0,8.6816331 c 0,3.8365579 2.4257116,7.0899999 5.7891114,8.2366979 0.4233354,0.08175 0.5785583,-0.186648 0.5785583,-0.41744 0,-0.206199 -0.00707,-0.752409 -0.010587,-1.475877 -2.3551522,0.52379 -2.8518656,-1.164786 -2.8518656,-1.164786 -0.3852352,-1.002006 -0.9419214,-1.26969 -0.9419214,-1.26969 -0.7669427,-0.538261 0.059267,-0.527409 0.059267,-0.527409 0.8501985,0.06077 1.2968175,0.894209 1.2968175,0.894209 0.7549479,1.327565 1.9819153,0.944127 2.4659285,0.722022 0.0762,-0.561413 0.2942183,-0.944128 0.5362248,-1.161169 C 5.041219,12.301151 3.0649483,11.55453 3.0649483,8.2280176 c 0,-0.9477448 0.3280848,-1.7218571 0.8713653,-2.3295714 -0.095251,-0.219212 -0.3810019,-1.1018439 0.074083,-2.2977387 0,0 0.709087,-0.2329577 2.3283447,0.8898673 0.6773367,-0.193167 1.3970055,-0.2886643 2.1166757,-0.2930052 0.7196702,0.00435 1.4393403,0.099838 2.116677,0.2930052 1.608674,-1.1228247 2.317763,-0.8898673 2.317763,-0.8898673 0.455085,1.1958948 0.169334,2.0785276 0.08467,2.2977387 0.539752,0.6077143 0.867837,1.3818266 0.867837,2.3295714 0,3.3351934 -1.979093,4.0695154 -3.8629366,4.2829394 0.2963346,0.260449 0.5715046,0.792922 0.5715046,1.606102 0,1.161892 -0.01067,2.095167 -0.01067,2.377319 0,0.227882 0.148161,0.499195 0.582085,0.412379 3.38739,-1.138741 5.810986,-4.394353 5.810986,-8.2251239 C 16.933333,3.8872013 13.142363,0 8.466625,0"
       id="path2324"
       style="stroke-width:0.714457;fill:#ffffff;fill-opacity:1" />
  </g>
</svg>
