<?xml version="1.0" encoding="UTF-8" standalone="no"?>
<!-- Created with Inkscape (http://www.inkscape.org/) -->

<svg
   width="476.24991mm"
   height="129.09413mm"
   viewBox="0 0 476.24991 129.09413"
   version="1.1"
   id="svg5"
   sodipodi:docname="sep.svg"
   inkscape:version="1.1 (c4e8f9e, 2021-05-24)"
   xmlns:inkscape="http://www.inkscape.org/namespaces/inkscape"
   xmlns:sodipodi="http://sodipodi.sourceforge.net/DTD/sodipodi-0.dtd"
   xmlns="http://www.w3.org/2000/svg"
   xmlns:svg="http://www.w3.org/2000/svg">
  <sodipodi:namedview
     id="namedview7"
     pagecolor="#505050"
     bordercolor="#ffffff"
     borderopacity="1"
     inkscape:pageshadow="0"
     inkscape:pageopacity="0"
     inkscape:pagecheckerboard="1"
     inkscape:document-units="mm"
     showgrid="false"
     fit-margin-top="0"
     fit-margin-left="0"
     fit-margin-right="0"
     fit-margin-bottom="0"
     inkscape:zoom="0.42624584"
     inkscape:cx="1191.8005"
     inkscape:cy="270.97039"
     inkscape:window-width="1440"
     inkscape:window-height="790"
     inkscape:window-x="0"
     inkscape:window-y="25"
     inkscape:window-maximized="1"
     inkscape:current-layer="layer1"
     inkscape:snap-global="true"
     inkscape:snap-bbox="true"
     inkscape:bbox-paths="true"
     inkscape:bbox-nodes="true"
     inkscape:snap-bbox-edge-midpoints="true"
     inkscape:snap-bbox-midpoints="true" />
  <defs
     id="defs2" />
  <g
     inkscape:label="Layer 1"
     inkscape:groupmode="layer"
     id="layer1"
     transform="translate(-38.278291,-58.71743)">
    <path
       id="path836"
       style="fill:#0d0f12;stroke-width:0.999999;fill-opacity:1"
       d="M 1175.3145 0.015625 C 1172.0493 0.18982962 1168.8506 1.7876841 1166.9551 4.8964844 C 1164.6158 8.7329543 1164.4667 12.662401 1166.5098 16.613281 C 1168.4222 20.3115 1170.8285 21.591797 1175.8574 21.591797 C 1183.9604 21.591797 1188.8336 13.916729 1185.6172 6.21875 C 1183.8219 1.9220657 1179.5125 -0.20835237 1175.3145 0.015625 z M 1775.3145 0.015625 C 1772.0493 0.18982962 1768.8506 1.7876841 1766.9551 4.8964844 C 1764.6158 8.7329543 1764.4667 12.662401 1766.5098 16.613281 C 1768.4222 20.3115 1770.8285 21.591797 1775.8574 21.591797 C 1783.9604 21.591797 1788.8336 13.916729 1785.6172 6.21875 C 1783.8219 1.9220657 1779.5125 -0.20835237 1775.3145 0.015625 z M 575.31445 1.3378906 C 572.04932 1.5120952 568.85063 3.1099497 566.95508 6.21875 C 564.61582 10.05522 564.4667 13.984667 566.50977 17.935547 C 568.42221 21.633765 570.82846 22.914062 575.85742 22.914062 C 583.96043 22.914062 588.8336 15.238995 585.61719 7.5410156 C 583.82192 3.2443313 579.51248 1.1139133 575.31445 1.3378906 z M 758.10938 25.888672 C 756.72112 25.825066 755.50685 26.208043 753.60742 27.109375 C 751.58299 28.070033 749.28657 30.03442 748.50391 31.474609 C 745.57867 36.85745 747.51513 44.139637 752.47266 46.398438 C 757.49244 48.685607 761.87912 47.911884 765.72656 44.064453 C 768.96138 40.829733 769.21268 40.164911 768.74609 36.025391 C 768.13853 30.63507 765.96601 27.96245 760.98047 26.46875 C 759.83693 26.126139 758.94233 25.926835 758.10938 25.888672 z M 1358.1094 25.888672 C 1356.7211 25.825066 1355.5068 26.208043 1353.6074 27.109375 C 1351.583 28.070033 1349.2866 30.03442 1348.5039 31.474609 C 1345.5787 36.85745 1347.5151 44.139637 1352.4727 46.398438 C 1357.4924 48.685607 1361.8791 47.911884 1365.7266 44.064453 C 1368.9614 40.829733 1369.2127 40.164911 1368.7461 36.025391 C 1368.1385 30.63507 1365.966 27.96245 1360.9805 26.46875 C 1359.8369 26.126139 1358.9423 25.926835 1358.1094 25.888672 z M 158.10938 27.210938 C 156.72112 27.147331 155.50685 27.530308 153.60742 28.431641 C 151.58299 29.392298 149.28657 31.356686 148.50391 32.796875 C 145.57867 38.179716 147.51513 45.461902 152.47266 47.720703 C 157.49244 50.007873 161.87912 49.236102 165.72656 45.388672 C 168.96138 42.153952 169.21268 41.487176 168.74609 37.347656 C 168.13853 31.957336 165.96601 29.284715 160.98047 27.791016 C 159.83693 27.448405 158.94233 27.249101 158.10938 27.210938 z M 1085.5254 36.726562 C 1081.0265 36.755459 1076.5225 39.23847 1074.9453 43.091797 C 1071.8335 50.694729 1077.0579 58.591797 1085.1992 58.591797 C 1090.3325 58.591797 1096 52.794188 1096 47.542969 C 1096 43.782619 1092.9799 38.826551 1089.9141 37.556641 C 1088.5239 36.980798 1087.025 36.71693 1085.5254 36.726562 z M 1685.5234 36.726562 C 1681.0246 36.755459 1676.5225 39.23847 1674.9453 43.091797 C 1671.8335 50.694729 1677.0579 58.591797 1685.1992 58.591797 C 1690.3325 58.591797 1696 52.794188 1696 47.542969 C 1696 43.782619 1692.9799 38.826551 1689.9141 37.556641 C 1688.5239 36.980798 1687.0231 36.71693 1685.5234 36.726562 z M 485.52539 38.048828 C 481.02651 38.077724 476.52245 40.560736 474.94531 44.414062 C 471.83351 52.016994 477.05793 59.914062 485.19922 59.914062 C 490.33254 59.914062 496 54.116453 496 48.865234 C 496 45.104884 492.9799 40.148816 489.91406 38.878906 C 488.52386 38.303064 487.02502 38.039196 485.52539 38.048828 z M 665.06445 63.912109 C 664.6006 63.941308 664.16369 64.014013 663.76562 64.134766 C 660.9317 64.994446 657.04502 68.456676 655.95508 71.091797 C 654.6951 74.137964 654.84936 76.471405 656.54883 80.052734 C 658.99052 85.198236 665.57678 87.109697 671.52734 84.398438 C 676.84835 81.974037 678.75547 73.092977 674.98438 68.298828 C 672.89602 65.643882 668.31142 63.707716 665.06445 63.912109 z M 1265.0645 63.912109 C 1264.6006 63.941308 1264.1637 64.014013 1263.7656 64.134766 C 1260.9317 64.994446 1257.0431 68.456676 1255.9531 71.091797 C 1254.6931 74.137964 1254.8494 76.471405 1256.5488 80.052734 C 1258.9905 85.198236 1265.5768 87.109697 1271.5273 84.398438 C 1276.8484 81.974037 1278.7555 73.092977 1274.9844 68.298828 C 1272.896 65.643882 1268.3114 63.707716 1265.0645 63.912109 z M 65.064453 65.234375 C 64.600601 65.263574 64.16369 65.336279 63.765625 65.457031 C 60.931697 66.316711 57.045018 69.778942 55.955078 72.414062 C 54.695097 75.460229 54.849364 77.793671 56.548828 81.375 C 58.990516 86.520502 65.57678 88.431962 71.527344 85.720703 C 76.848352 83.296302 78.755474 74.417196 74.984375 69.623047 C 72.896016 66.968101 68.311417 65.029981 65.064453 65.234375 z M 1175.7402 80.433594 C 1173.2016 80.51621 1170.6887 81.703833 1168.4004 83.992188 L 1164.998 87.392578 L 1164.998 131.95703 L 1164.998 176.52344 L 1168.1035 180.05664 C 1170.8383 183.17142 1171.7711 183.5918 1175.957 183.5918 C 1181.2173 183.5918 1185.4307 180.72767 1186.4961 176.42773 C 1186.8132 175.14338 1186.9455 154.36778 1186.7871 130.25977 L 1186.5 86.427734 L 1183.2344 83.509766 C 1180.8431 81.373696 1178.2789 80.350977 1175.7402 80.433594 z M 1775.7383 80.433594 C 1773.1996 80.51621 1770.6868 81.703833 1768.3984 83.992188 L 1764.998 87.392578 L 1764.998 131.95703 L 1764.998 176.52344 L 1768.1016 180.05664 C 1770.8364 183.17142 1771.7711 183.5918 1775.957 183.5918 C 1781.2173 183.5918 1785.4307 180.72767 1786.4961 176.42773 C 1786.8132 175.14338 1786.9455 154.36778 1786.7871 130.25977 L 1786.5 86.427734 L 1783.2344 83.509766 C 1780.8431 81.373696 1778.2769 80.350977 1775.7383 80.433594 z M 575.74023 81.755859 C 573.2016 81.838476 570.68871 83.026098 568.40039 85.314453 L 565 88.714844 L 565 133.2793 L 565 177.8457 L 568.10352 181.38086 C 570.83831 184.49564 571.77113 184.91406 575.95703 184.91406 C 581.2173 184.91406 585.43072 182.04993 586.49609 177.75 C 586.8132 176.46564 586.94547 155.69004 586.78711 131.58203 L 586.5 87.75 L 583.23438 84.832031 C 580.84311 82.695961 578.27887 81.673243 575.74023 81.755859 z M 992.06641 88.300781 C 988.23347 88.315984 984.36457 90.163649 982.32617 93.833984 C 979.57415 98.789334 981.81164 106.27464 986.71289 108.50781 C 996.79274 113.10048 1006.5728 103.40128 1001.5859 93.757812 C 999.69598 90.103049 995.89934 88.285578 992.06641 88.300781 z M 1592.0664 88.300781 C 1588.2335 88.315984 1584.3646 90.163649 1582.3262 93.833984 C 1579.5741 98.789334 1581.8116 106.27464 1586.7129 108.50781 C 1596.7927 113.10048 1606.5728 103.40128 1601.5859 93.757812 C 1599.696 90.103049 1595.8993 88.285578 1592.0664 88.300781 z M 392.06641 89.625 C 388.23347 89.640203 384.36457 91.485915 382.32617 95.15625 C 379.57415 100.1116 381.81164 107.59691 386.71289 109.83008 C 396.79274 114.42275 406.57276 104.72355 401.58594 95.080078 C 399.69598 91.425315 395.89934 89.609797 392.06641 89.625 z M 1041.0508 91.591797 C 1036.4983 91.591797 1032.0576 94.23959 1030.4629 97.90625 C 1029.4031 100.34279 1029.0713 107.20348 1029.041 127.0918 C 1028.9983 156.63949 1029.3987 158.57684 1036.2441 161.92188 C 1039.3903 163.45924 1040.5456 163.56758 1043.4785 162.59961 C 1045.3982 161.96608 1047.8758 160.29415 1048.9844 158.88477 C 1050.8998 156.44965 1051 154.88328 1051 127.35742 L 1051 98.392578 L 1047.5996 94.992188 C 1045.1722 92.564828 1043.2994 91.591797 1041.0508 91.591797 z M 1641.0508 91.591797 C 1636.4983 91.591797 1632.0576 94.23959 1630.4629 97.90625 C 1629.4031 100.34279 1629.0713 107.20348 1629.041 127.0918 C 1628.9983 156.63949 1629.3987 158.57684 1636.2441 161.92188 C 1639.3903 163.45924 1640.5456 163.56758 1643.4785 162.59961 C 1645.3982 161.96608 1647.8758 160.29415 1648.9844 158.88477 C 1650.8998 156.44965 1651 154.88326 1651 127.35742 L 1651 98.392578 L 1647.5996 94.992188 C 1645.1722 92.564828 1643.2994 91.591797 1641.0508 91.591797 z M 441.05078 92.914062 C 436.4983 92.914062 432.05958 95.563809 430.46484 99.230469 C 429.4051 101.66701 429.07125 108.52575 429.04102 128.41406 C 428.99827 157.96176 429.39866 159.89911 436.24414 163.24414 C 439.39029 164.7815 440.54564 164.88985 443.47852 163.92188 C 445.39821 163.28835 447.87576 161.61642 448.98438 160.20703 C 450.89984 157.77192 451 156.20552 451 128.67969 L 451 99.714844 L 447.59961 96.314453 C 445.17225 93.887093 443.29941 92.914062 441.05078 92.914062 z M 758.23438 95.591797 C 753.92156 95.591797 749.45527 98.368507 747.95703 101.98047 C 747.47518 103.142 747.17574 116.84242 747.29102 132.42578 L 747.5 160.75977 L 750.76562 163.67578 C 756.31613 168.63286 764.61889 167.29046 767.88281 160.9082 C 768.62757 159.45225 769 149.3329 769 130.55859 L 769 102.39258 L 765.59961 98.992188 C 762.87623 96.268815 761.41043 95.591797 758.23438 95.591797 z M 1358.2344 95.591797 C 1353.9216 95.591797 1349.4553 98.368507 1347.957 101.98047 C 1347.4752 103.142 1347.1757 116.84242 1347.291 132.42578 L 1347.5 160.75977 L 1350.7656 163.67578 C 1356.3161 168.63286 1364.6189 167.29046 1367.8828 160.9082 C 1368.6276 159.45225 1369 149.3329 1369 130.55859 L 1369 102.39258 L 1365.5996 98.992188 C 1362.8762 96.268815 1361.4104 95.591797 1358.2344 95.591797 z M 1085.2344 96.591797 C 1080.9216 96.591797 1076.4553 99.368507 1074.957 102.98047 C 1074.4751 104.142 1074.1738 117.77508 1074.2891 133.27734 L 1074.5 161.46484 L 1077.332 164.41992 C 1080.8293 168.06834 1085.0468 169.01728 1089.4961 167.1582 C 1095.7059 164.56363 1096 162.95014 1096 131.54102 L 1096 103.39258 L 1092.5996 99.992188 C 1089.8762 97.268819 1088.4104 96.591797 1085.2344 96.591797 z M 1685.2344 96.591797 C 1680.9216 96.591797 1676.4553 99.368507 1674.957 102.98047 C 1674.4751 104.142 1674.1738 117.77508 1674.2891 133.27734 L 1674.5 161.46484 L 1677.332 164.41992 C 1680.8293 168.06834 1685.0448 169.01728 1689.4941 167.1582 C 1695.704 164.56363 1696 162.95014 1696 131.54102 L 1696 103.39258 L 1692.5996 99.992188 C 1689.8762 97.268819 1688.4104 96.591797 1685.2344 96.591797 z M 158.23438 96.914062 C 153.92156 96.914062 149.45527 99.690772 147.95703 103.30273 C 147.47518 104.46426 147.17574 118.16469 147.29102 133.74805 L 147.5 162.08203 L 150.76562 164.99805 C 156.31613 169.95512 164.61889 168.61273 167.88281 162.23047 C 168.62757 160.77452 169 150.65517 169 131.88086 L 169 103.71484 L 165.59961 100.31445 C 162.87623 97.591081 161.41043 96.914062 158.23438 96.914062 z M 485.23438 97.914062 C 480.92156 97.914063 476.45527 100.69077 474.95703 104.30273 C 474.47514 105.46426 474.17574 119.0993 474.29102 134.60156 L 474.5 162.78711 L 477.33203 165.74219 C 480.8293 169.3906 485.04676 170.33954 489.49609 168.48047 C 495.70593 165.8859 496 164.27436 496 132.86523 L 496 104.71484 L 492.59961 101.31445 C 489.87623 98.591084 488.41043 97.914062 485.23438 97.914062 z M 852.19922 100.91406 C 848.57263 100.83839 844.70493 102.74706 842.56055 105.80859 C 839.28914 110.47921 841.45579 119.11259 846.47266 121.39844 C 850.10611 123.05396 855.12914 122.89022 857.7832 121.03125 C 865.86595 115.36988 863.32906 102.87065 853.73242 101.07031 C 853.22991 100.97604 852.7173 100.92487 852.19922 100.91406 z M 1452.1992 100.91406 C 1448.5726 100.83839 1444.7049 102.74706 1442.5605 105.80859 C 1439.2891 110.47921 1441.4558 119.11259 1446.4727 121.39844 C 1450.1061 123.05396 1455.1291 122.89022 1457.7832 121.03125 C 1465.8659 115.36988 1463.3291 102.87065 1453.7324 101.07031 C 1453.2299 100.97604 1452.7173 100.92487 1452.1992 100.91406 z M 252.19922 102.23633 C 248.57263 102.16065 244.70493 104.06933 242.56055 107.13086 C 239.28914 111.80148 241.45579 120.43486 246.47266 122.7207 C 250.10611 124.37623 255.12914 124.21249 257.7832 122.35352 C 265.86595 116.69215 263.33101 104.19292 253.73438 102.39258 C 253.23186 102.29831 252.7173 102.24714 252.19922 102.23633 z M 898.70898 121.0625 C 895.57092 121.33407 892.70781 123.01943 890.93164 125.89648 C 889.06996 128.91221 888.97497 130.70798 889.23047 157.82031 L 889.5 186.55078 L 892.05469 189.10156 C 897.09318 194.13714 905.38596 193.28838 908.99609 187.36719 C 910.86012 184.30974 910.99307 182.3142 910.99609 157.31055 C 911.00033 126.89148 910.66511 125.08613 904.47852 122.15039 C 902.5728 121.24607 900.59183 120.89956 898.70898 121.0625 z M 1498.709 121.0625 C 1495.5709 121.33407 1492.7078 123.01943 1490.9316 125.89648 C 1489.07 128.91221 1488.973 130.70798 1489.2285 157.82031 L 1489.5 186.55078 L 1492.0547 189.10156 C 1497.0932 194.13714 1505.386 193.28838 1508.9961 187.36719 C 1510.8601 184.30974 1510.9931 182.3142 1510.9961 157.31055 C 1511.0003 126.89148 1510.6651 125.08613 1504.4785 122.15039 C 1502.5728 121.24607 1500.5918 120.89956 1498.709 121.0625 z M 1131.3867 121.64062 C 1128.9639 121.55271 1126.5431 122.16314 1124.707 123.60742 C 1123.2977 124.71602 1121.5999 127.27591 1120.9336 129.29492 C 1119.9942 132.14134 1119.8878 163.00343 1120.4629 266.70312 C 1121.0235 367.80099 1120.919 401.30616 1120.0352 403.98438 C 1118.3517 409.0853 1113.7829 412.5918 1108.8223 412.5918 C 1105.5801 412.5918 1104.1403 411.9313 1101.4004 409.19141 L 1098 405.79297 L 1098 319.25781 C 1098 264.58169 1097.6352 231.7641 1097.0098 230.11914 C 1095.2727 225.55026 1091.1725 222.5918 1086.5762 222.5918 C 1084.3039 222.5918 1081.4423 223.29398 1080.2168 224.15234 C 1075.0608 227.76376 1075 228.34031 1075 273.5918 C 1075 308.98605 1074.7621 316.15263 1073.5059 318.58203 C 1069.8919 325.57072 1061.985 326.776 1056.4004 321.19141 L 1053 317.79297 L 1053 257.66016 C 1053 193.04955 1052.9805 192.79321 1047.8828 189.22266 C 1046.5957 188.32116 1043.6084 187.5918 1041.2012 187.5918 C 1037.7217 187.5918 1036.2576 188.17991 1033.9219 190.51562 L 1031 193.43945 L 1030.9434 285.26562 C 1030.9013 353.7157 1030.5831 377.95885 1029.6934 380.49805 C 1027.2542 387.45922 1018.8007 390.13655 1011.3848 386.29492 C 1005.3102 383.14805 1004.9995 381.22602 1004.9844 346.44141 C 1004.9736 323.55096 1004.6363 314.44455 1003.7344 312.68945 C 1001.6594 308.65194 997.34812 306.11809 992.75781 306.23828 C 989.34637 306.32774 988.02881 306.98467 985.30664 309.95508 L 982 313.5625 L 982 326.10938 C 982 334.69075 981.54992 339.73218 980.57812 342.05859 C 979.00883 345.81446 974.63412 348.59545 970.30078 348.58789 C 967.03504 348.58354 961.55558 345.50064 960.15039 342.875 C 959.57549 341.80074 958.87153 318.33722 958.43945 285.84375 C 957.76549 235.15995 957.55768 230.39511 955.90039 227.66992 C 951.89579 221.08485 941.33915 221.70586 937.02539 228.78125 C 935.08933 231.95666 935.00769 233.73406 935.00391 272.44141 L 935 312.79297 L 931.59961 316.19141 C 928.76855 319.02246 927.46724 319.5918 923.82227 319.5918 C 921.41463 319.5918 918.44235 318.88962 917.2168 318.03125 C 912.09187 314.44168 912 313.61694 912 271.28906 C 912 231.92029 911.99748 231.88527 909.7168 228.49023 C 908.29093 226.36765 905.93092 224.56782 903.42773 223.69531 C 899.84244 222.44561 899.02522 222.48606 895.66602 224.08008 C 888.68459 227.39291 889 223.68256 889 302.5918 C 889 363.40874 888.78548 374.10458 887.51953 376.55273 C 883.62889 384.07641 874.75716 386.02771 868.76562 380.67578 L 865.5 377.75781 L 865 321.92578 C 864.53773 270.30995 864.36409 265.89215 862.70117 263.44336 C 858.73879 257.60826 850.15929 257.23781 845.56055 262.70312 C 843.24483 265.45496 842.99912 266.57578 842.99609 274.41992 C 842.99167 284.71823 841.10651 288.80912 835.22852 291.27734 C 830.19373 293.3915 824.53258 291.53235 821.2832 286.69531 C 819.05842 283.38377 819 282.66424 819 258.41211 C 819 231.40757 818.49324 228.27228 813.60938 225.07227 C 810.40464 222.97244 804.91758 222.76255 801.4668 224.60938 C 795.78072 227.65239 795.99987 223.72894 795.99609 322.29297 C 795.99247 410.58545 795.93917 413.17992 794.04102 416.29297 C 791.89409 419.81405 787.37078 422.59545 783.79883 422.58789 C 780.91645 422.5832 775.45956 419.31728 774.10547 416.78711 C 773.52293 415.69864 772.95656 405.23333 772.79102 392.48438 C 772.51156 370.95558 772.41081 369.96784 770.19922 366.86719 C 768.73938 364.82046 766.41255 363.19757 763.83008 362.42383 C 760.25718 361.35339 759.31889 361.44145 756.13086 363.14844 C 751.34908 365.70877 749.00396 370.56882 749.00195 377.91992 C 749.00059 383.02584 748.63756 384.10854 746.07617 386.66992 C 740.3336 392.4125 730.88908 390.127 726.97852 382.04883 C 725.06891 378.10421 725 375.68427 725 312.85352 L 725 247.74609 L 722.43945 244.70312 C 719.13921 240.781 714.05257 239.72056 709.33398 241.9707 C 702.82775 245.07332 703.00001 242.93485 702.99805 320.31055 C 702.99657 384.77016 702.86315 390.35409 701.24805 393.52148 C 697.20255 401.4552 688.38817 403.44 682.65625 397.70898 L 679.5 394.55469 L 679 313.32422 C 678.60969 249.9132 678.21963 231.60181 677.2207 229.85352 C 674.48773 225.07018 667.36698 223.31804 661.98047 226.10352 C 656.81979 228.7722 656.53904 230.19282 656 256.42188 L 655.5 280.75 L 651.76562 284.17188 C 648.64763 287.02753 647.27028 287.5918 643.4375 287.5918 C 639.69588 287.5918 638.30576 287.05186 635.92383 284.66992 L 633 281.74609 L 633 262.13672 C 633 240.63279 632.40754 237.63594 627.37109 233.66211 C 623.50135 230.60878 616.90754 231.23196 613.13281 235.00586 L 610.5 237.63672 L 610 308.03516 L 609.5 378.43164 L 607.15625 380.92773 C 605.8666 382.30019 603.72908 383.6955 602.40625 384.02734 L 600 384.63086 L 600 385.07422 L 597.125 384.44336 C 595.5441 384.09613 593.18158 382.67369 591.875 381.2832 L 589.5 378.75391 L 589 304.75781 L 588.5 230.75977 L 584.76367 227.33789 C 580.6221 223.54294 576.78715 222.93974 572.12695 225.34961 C 566.37096 228.32621 566.54055 227.14391 566 268.14453 L 565.5 306.07227 L 561.76367 309.49219 C 557.70015 313.21457 553.35346 313.94454 548.47266 311.7207 C 542.25624 308.88889 542.52622 312.94556 542.22461 217.91406 C 542.03178 157.17732 541.61778 130.58124 540.83398 128.61719 C 538.65112 123.14724 529.60333 121.07826 524.70703 124.92969 C 523.29768 126.03829 521.59992 128.59818 520.93359 130.61719 C 519.99419 133.46361 519.88784 164.3257 520.46289 268.02539 C 521.02351 369.12326 520.91904 402.62843 520.03516 405.30664 C 518.35168 410.40757 513.78286 413.91406 508.82227 413.91406 C 505.58011 413.91406 504.14028 413.25552 501.40039 410.51562 L 498 407.11523 L 498 320.58008 C 498 265.90396 497.63516 233.08637 497.00977 231.44141 C 495.27269 226.87252 491.17253 223.91406 486.57617 223.91406 C 484.30388 223.91406 481.44231 224.61624 480.2168 225.47461 C 475.06084 229.08602 475 229.66257 475 274.91406 C 475 310.30832 474.76214 317.47489 473.50586 319.9043 C 469.89188 326.89298 461.98498 328.10022 456.40039 322.51562 L 453 319.11523 L 453 258.98242 C 453 194.37181 452.98053 194.11548 447.88281 190.54492 C 446.59573 189.64343 443.60843 188.91406 441.20117 188.91406 C 437.72174 188.91406 436.25954 189.50218 433.92383 191.83789 L 431 194.76172 L 430.94336 286.58789 C 430.90129 355.03797 430.5831 379.28111 429.69336 381.82031 C 427.2542 388.78148 418.80065 391.45881 411.38477 387.61719 C 405.31023 384.47032 404.99949 382.54829 404.98438 347.76367 C 404.9736 324.87323 404.63632 315.76682 403.73438 314.01172 C 401.65941 309.9742 397.34812 307.44036 392.75781 307.56055 C 389.34637 307.65001 388.02881 308.30694 385.30664 311.27734 L 382 314.88477 L 382 327.43164 C 382 336.01302 381.54992 341.05445 380.57812 343.38086 C 379.00883 347.13673 374.63412 349.91772 370.30078 349.91016 C 367.03504 349.90581 361.55558 346.8229 360.15039 344.19727 C 359.57549 343.12301 358.87153 319.65948 358.43945 287.16602 C 357.76549 236.48221 357.55768 231.71738 355.90039 228.99219 C 351.89579 222.40712 341.33915 223.03008 337.02539 230.10547 C 335.08933 233.28088 335.00769 235.05827 335.00391 273.76562 L 335 314.11523 L 331.59961 317.51562 C 328.76855 320.34668 327.46724 320.91406 323.82227 320.91406 C 321.41463 320.91406 318.44235 320.21188 317.2168 319.35352 C 312.09187 315.76395 312 314.94116 312 272.61328 C 312 233.24451 311.99748 233.20754 309.7168 229.8125 C 308.29093 227.68992 305.93092 225.89008 303.42773 225.01758 C 299.84244 223.76788 299.02522 223.80833 295.66602 225.40234 C 288.68459 228.71518 289 225.00482 289 303.91406 C 289 364.73101 288.78548 375.4288 287.51953 377.87695 C 283.62889 385.40063 274.75716 387.34997 268.76562 381.99805 L 265.5 379.08008 L 265 323.24805 C 264.53773 271.63221 264.36409 267.21442 262.70117 264.76562 C 258.73879 258.93053 250.15929 258.56008 245.56055 264.02539 C 243.24483 266.77723 242.99912 267.89804 242.99609 275.74219 C 242.99167 286.04049 241.10651 290.13334 235.22852 292.60156 C 230.19374 294.71572 224.53258 292.85462 221.2832 288.01758 C 219.05842 284.70603 219 283.98651 219 259.73438 C 219 232.72984 218.49324 229.59454 213.60938 226.39453 C 210.40464 224.2947 204.91758 224.08677 201.4668 225.93359 C 195.78072 228.9766 195.99987 225.0512 195.99609 323.61523 C 195.99247 411.90772 195.93917 414.50414 194.04102 417.61719 C 191.89409 421.13827 187.37274 423.91772 183.80078 423.91016 C 180.9184 423.90547 175.45956 420.63954 174.10547 418.10938 C 173.52293 417.02091 172.95656 406.55559 172.79102 393.80664 C 172.51156 372.27785 172.41081 371.2901 170.19922 368.18945 C 168.73938 366.14273 166.41255 364.51984 163.83008 363.74609 C 160.25718 362.67566 159.31889 362.76372 156.13086 364.4707 C 151.34908 367.03103 149.00396 371.89108 149.00195 379.24219 C 149.00059 384.3481 148.63951 385.4308 146.07812 387.99219 C 140.33555 393.73476 130.88908 391.44927 126.97852 383.37109 C 125.06891 379.42648 125 377.00653 125 314.17578 L 125 249.06836 L 122.43945 246.02539 C 119.13921 242.10326 114.05257 241.04283 109.33398 243.29297 C 102.82775 246.39558 103.00001 244.25711 102.99805 321.63281 C 102.99657 386.09243 102.86315 391.67635 101.24805 394.84375 C 97.202554 402.77747 88.388168 404.76421 82.65625 399.0332 L 79.5 395.87695 L 79 314.64648 C 78.609688 251.23546 78.219632 232.92408 77.220703 231.17578 C 74.487727 226.39245 67.366976 224.64031 61.980469 227.42578 C 56.819788 230.09447 56.539036 231.51509 56 257.74414 L 55.5 282.07227 L 51.765625 285.49414 C 48.647628 288.3498 47.270281 288.91406 43.4375 288.91406 C 39.695881 288.91406 38.305762 288.37412 35.923828 285.99219 L 33 283.06836 L 33 263.45898 C 33 241.95506 32.407541 238.95821 27.371094 234.98438 C 23.501349 231.93105 16.90754 232.55423 13.132812 236.32812 L 10.5 238.95898 L 10 309.35742 L 9.5 379.75391 L 7.15625 382.25 C 5.8665996 383.62246 3.7290846 385.01777 2.40625 385.34961 L 0 385.95312 L 0 436.93359 L 0 487.91406 L 269.83789 487.91406 C 418.2483 487.91406 553.2483 487.6175 569.83789 487.25391 L 600 486.5918 L 869.83594 486.5918 C 1018.2463 486.5918 1153.2463 486.29523 1169.8359 485.93164 L 1200 485.26953 L 1200 486.5918 L 1469.8359 486.5918 C 1618.2463 486.5918 1753.2463 486.29523 1769.8359 485.93164 L 1800 485.26953 L 1800 434.50977 L 1800 383.75195 L 1797.125 383.11914 C 1795.5441 382.77192 1793.1816 381.35143 1791.875 379.96094 L 1789.5 377.43164 L 1789 303.43555 L 1788.5 229.4375 L 1784.7637 226.01562 C 1780.6221 222.22068 1776.7871 221.61748 1772.127 224.02734 C 1766.371 227.00395 1766.5405 225.82165 1766 266.82227 L 1765.5 304.74805 L 1761.7637 308.16992 C 1757.7002 311.8923 1753.3535 312.62227 1748.4727 310.39844 C 1742.2562 307.56663 1742.5262 311.62329 1742.2246 216.5918 C 1742.0318 155.85505 1741.6178 129.25897 1740.834 127.29492 C 1738.6511 121.82497 1729.6033 119.75599 1724.707 123.60742 C 1723.2977 124.71602 1721.5999 127.27591 1720.9336 129.29492 C 1719.9942 132.14134 1719.8878 163.00343 1720.4629 266.70312 C 1721.0235 367.80099 1720.919 401.30616 1720.0352 403.98438 C 1718.3517 409.0853 1713.7829 412.5918 1708.8223 412.5918 C 1705.5801 412.5918 1704.1403 411.9313 1701.4004 409.19141 L 1698 405.79297 L 1698 319.25781 C 1698 264.58169 1697.6352 231.7641 1697.0098 230.11914 C 1695.2727 225.55026 1691.1725 222.5918 1686.5762 222.5918 C 1684.3039 222.5918 1681.4423 223.29398 1680.2168 224.15234 C 1675.0608 227.76376 1675 228.34031 1675 273.5918 C 1675 308.98605 1674.7621 316.15263 1673.5059 318.58203 C 1669.8919 325.57072 1661.985 326.776 1656.4004 321.19141 L 1653 317.79297 L 1653 257.66016 C 1653 193.04955 1652.9805 192.79321 1647.8828 189.22266 C 1646.5957 188.32116 1643.6084 187.5918 1641.2012 187.5918 C 1637.7217 187.5918 1636.2576 188.17991 1633.9219 190.51562 L 1631 193.43945 L 1630.9434 285.26562 C 1630.9013 353.7157 1630.5831 377.95885 1629.6934 380.49805 C 1627.2542 387.45922 1618.8007 390.13655 1611.3848 386.29492 C 1605.3102 383.14805 1604.9995 381.22602 1604.9844 346.44141 C 1604.9736 323.55096 1604.6363 314.44455 1603.7344 312.68945 C 1601.6594 308.65194 1597.3481 306.11809 1592.7578 306.23828 C 1589.3464 306.32774 1588.0288 306.98467 1585.3066 309.95508 L 1582 313.5625 L 1582 326.10938 C 1582 334.69075 1581.5499 339.73218 1580.5781 342.05859 C 1579.0088 345.81446 1574.6322 348.59545 1570.2988 348.58789 C 1567.0331 348.58354 1561.5556 345.50064 1560.1504 342.875 C 1559.5755 341.80074 1558.8715 318.33722 1558.4395 285.84375 C 1557.7655 235.15995 1557.5577 230.39511 1555.9004 227.66992 C 1551.8958 221.08485 1541.3392 221.70586 1537.0254 228.78125 C 1535.0893 231.95666 1535.0077 233.73406 1535.0039 272.44141 L 1535 312.79297 L 1531.5996 316.19141 C 1528.7686 319.02246 1527.4672 319.5918 1523.8223 319.5918 C 1521.4146 319.5918 1518.4423 318.88962 1517.2168 318.03125 C 1512.0919 314.44168 1512 313.61694 1512 271.28906 C 1512 231.92029 1511.9975 231.88527 1509.7168 228.49023 C 1508.2909 226.36765 1505.9309 224.56782 1503.4277 223.69531 C 1499.8424 222.44561 1499.0252 222.48606 1495.666 224.08008 C 1488.6846 227.39291 1489 223.68256 1489 302.5918 C 1489 363.40874 1488.7855 374.10458 1487.5195 376.55273 C 1483.6289 384.07641 1474.7572 386.02771 1468.7656 380.67578 L 1465.5 377.75781 L 1465 321.92578 C 1464.5377 270.30995 1464.3641 265.89215 1462.7012 263.44336 C 1458.7388 257.60826 1450.1593 257.23781 1445.5605 262.70312 C 1443.2448 265.45496 1442.9991 266.57578 1442.9961 274.41992 C 1442.9917 284.71823 1441.1065 288.80912 1435.2285 291.27734 C 1430.1937 293.3915 1424.5326 291.53235 1421.2832 286.69531 C 1419.0584 283.38377 1419 282.66424 1419 258.41211 C 1419 231.40757 1418.4932 228.27228 1413.6094 225.07227 C 1410.4046 222.97244 1404.9176 222.76255 1401.4668 224.60938 C 1395.7807 227.65239 1395.9999 223.72894 1395.9961 322.29297 C 1395.9925 410.58545 1395.9392 413.17992 1394.041 416.29297 C 1391.8941 419.81405 1387.3708 422.59545 1383.7988 422.58789 C 1380.9164 422.5832 1375.4596 419.31728 1374.1055 416.78711 C 1373.5229 415.69864 1372.9566 405.23333 1372.791 392.48438 C 1372.5116 370.95558 1372.4108 369.96784 1370.1992 366.86719 C 1368.7394 364.82046 1366.4126 363.19757 1363.8301 362.42383 C 1360.2572 361.35339 1359.3189 361.44145 1356.1309 363.14844 C 1351.3491 365.70877 1349.004 370.56882 1349.002 377.91992 C 1349.0006 383.02584 1348.6376 384.10854 1346.0762 386.66992 C 1340.3336 392.4125 1330.8891 390.127 1326.9785 382.04883 C 1325.0689 378.10421 1325 375.68427 1325 312.85352 L 1325 247.74609 L 1322.4395 244.70312 C 1319.1392 240.781 1314.0526 239.72056 1309.334 241.9707 C 1302.8278 245.07332 1303 242.93485 1302.998 320.31055 C 1302.9966 384.77016 1302.8632 390.35409 1301.248 393.52148 C 1297.2026 401.4552 1288.3882 403.44 1282.6562 397.70898 L 1279.5 394.55469 L 1279 313.32422 C 1278.6097 249.9132 1278.2196 231.60181 1277.2207 229.85352 C 1274.4877 225.07018 1267.367 223.31804 1261.9805 226.10352 C 1256.8198 228.7722 1256.539 230.19282 1256 256.42188 L 1255.5 280.75 L 1251.7656 284.17188 C 1248.6476 287.02753 1247.2703 287.5918 1243.4375 287.5918 C 1239.6959 287.5918 1238.3058 287.05186 1235.9238 284.66992 L 1233 281.74609 L 1233 262.13672 C 1233 240.63279 1232.4075 237.63594 1227.3711 233.66211 C 1223.5013 230.60878 1216.9075 231.23196 1213.1328 235.00586 L 1210.5 237.63672 L 1210 308.03516 L 1209.5 378.43164 L 1207.1543 380.92773 C 1205.8646 382.30019 1203.7271 383.6955 1202.4043 384.02734 L 1200 384.63086 L 1200 383.75195 L 1197.125 383.11914 C 1195.5441 382.77192 1193.1816 381.35143 1191.875 379.96094 L 1189.5 377.43164 L 1189 303.43555 L 1188.5 229.4375 L 1184.7637 226.01562 C 1180.6221 222.22068 1176.7871 221.61748 1172.127 224.02734 C 1166.371 227.00395 1166.5405 225.82165 1166 266.82227 L 1165.5 304.74805 L 1161.7637 308.16992 C 1157.7002 311.8923 1153.3535 312.62227 1148.4727 310.39844 C 1142.2562 307.56663 1142.5262 311.62329 1142.2246 216.5918 C 1142.0318 155.85505 1141.6178 129.25897 1140.834 127.29492 C 1139.4697 123.8762 1135.4248 121.78715 1131.3867 121.64062 z M 298.70898 122.38477 C 295.57092 122.65633 292.70781 124.34169 290.93164 127.21875 C 289.06996 130.23448 288.97497 132.0322 289.23047 159.14453 L 289.5 187.87305 L 292.05469 190.42383 C 297.09318 195.45941 305.38596 194.61065 308.99609 188.68945 C 310.86012 185.632 310.99307 183.63647 310.99609 158.63281 C 311.00033 128.21375 310.66511 126.4084 304.47852 123.47266 C 302.5728 122.56833 300.59183 122.22183 298.70898 122.38477 z M 619.77539 123.91211 C 616.12561 123.73985 611.81075 125.85399 609.92578 128.94531 C 608.2349 131.71841 608.00689 134.09294 608.00391 148.94141 L 608 165.79297 L 611.40039 169.19141 C 615.97747 173.76849 621.4521 173.94677 626.23438 169.67383 L 629.5 166.75586 L 629.5 148.74023 L 629.5 130.72461 L 626.64062 127.73828 C 625.06785 126.09666 622.65918 124.47281 621.28906 124.12891 C 620.8038 124.00711 620.29679 123.93672 619.77539 123.91211 z M 1219.7754 123.91211 C 1216.1256 123.73985 1211.8108 125.85399 1209.9258 128.94531 C 1208.2349 131.71841 1208.0069 134.09294 1208.0039 148.94141 L 1208 165.79297 L 1211.4004 169.19141 C 1215.9775 173.76849 1221.4521 173.94677 1226.2344 169.67383 L 1229.5 166.75586 L 1229.5 148.74023 L 1229.5 130.72461 L 1226.6406 127.73828 C 1225.0679 126.09666 1222.6592 124.47281 1221.2891 124.12891 C 1220.8038 124.00711 1220.2968 123.93672 1219.7754 123.91211 z M 713.42773 124.02539 C 709.80021 123.83336 706.07323 125.42646 703.93555 128.89648 C 702.05841 131.94358 701.98039 133.78045 702.23438 168.42578 L 702.5 204.75781 L 705.76562 207.67578 C 710.99774 212.34913 718.37954 211.29889 721.99609 205.36719 C 723.88922 202.26223 723.99231 200.31052 723.99609 167.74414 C 723.99934 137.7052 723.79061 132.95306 722.32812 129.87109 C 720.58397 126.19558 717.05526 124.21743 713.42773 124.02539 z M 1313.4277 124.02539 C 1309.8002 123.83336 1306.0732 125.42646 1303.9355 128.89648 C 1302.0584 131.94358 1301.9804 133.78045 1302.2344 168.42578 L 1302.5 204.75781 L 1305.7656 207.67578 C 1310.9977 212.34913 1318.3795 211.29889 1321.9961 205.36719 C 1323.8892 202.26223 1323.9923 200.31052 1323.9961 167.74414 C 1323.9993 137.7052 1323.7906 132.95306 1322.3281 129.87109 C 1320.584 126.19558 1317.0553 124.21743 1313.4277 124.02539 z M 19.775391 125.23438 C 16.125607 125.06212 11.810754 127.17626 9.9257812 130.26758 C 8.2348962 133.04068 8.0068921 135.41716 8.0039062 150.26562 L 8 167.11523 L 11.400391 170.51562 C 15.977474 175.09271 21.452101 175.26904 26.234375 170.99609 L 29.5 168.07812 L 29.5 150.0625 L 29.5 132.04688 L 26.640625 129.06055 C 25.06785 127.41893 22.659179 125.79507 21.289062 125.45117 C 20.8038 125.32938 20.296788 125.25898 19.775391 125.23438 z M 113.42773 125.34766 C 109.80021 125.15562 106.07323 126.74873 103.93555 130.21875 C 102.05841 133.26585 101.98039 135.10271 102.23438 169.74805 L 102.5 206.08008 L 105.76562 208.99805 C 110.99774 213.67139 118.37954 212.62116 121.99609 206.68945 C 123.88922 203.5845 123.99231 201.63278 123.99609 169.06641 C 123.99934 139.02747 123.79061 134.27533 122.32812 131.19336 C 120.58397 127.51784 117.05526 125.53969 113.42773 125.34766 z M 946.92578 134.58984 C 944.23005 134.46308 941.80755 135.58504 939.40039 137.99219 L 936 141.39258 L 936 170.35742 C 936 198.06057 936.0905 199.43654 938.05469 201.93359 C 941.16025 205.88165 946.81526 207.24921 951.2793 205.13086 C 957.61397 202.12485 958 200.14135 958 170.6582 C 958 141.74224 957.52498 138.94861 952.12891 136.1582 C 950.25916 135.19132 948.54322 134.6659 946.92578 134.58984 z M 1546.9258 134.58984 C 1544.2301 134.46308 1541.8075 135.58504 1539.4004 137.99219 L 1536 141.39258 L 1536 170.35742 C 1536 198.06057 1536.0886 199.43654 1538.0527 201.93359 C 1541.1583 205.88165 1546.8153 207.24921 1551.2793 205.13086 C 1557.614 202.12485 1558 200.14135 1558 170.6582 C 1558 141.74224 1557.525 138.94861 1552.1289 136.1582 C 1550.2592 135.19132 1548.5432 134.6659 1546.9258 134.58984 z M 346.92578 135.91211 C 344.23005 135.78534 341.80755 136.90731 339.40039 139.31445 L 336 142.71484 L 336 171.67969 C 336 199.38283 336.0905 200.7588 338.05469 203.25586 C 341.16025 207.20392 346.81526 208.57147 351.2793 206.45312 C 357.61397 203.44712 358 201.46557 358 171.98242 C 358 143.06646 357.52498 140.27088 352.12891 137.48047 C 350.25916 136.51358 348.54322 135.98817 346.92578 135.91211 z M 667.02539 144.56836 C 661.94266 144.39621 656.63285 147.15862 655.68945 151.9668 C 655.46015 153.13595 655.21275 159.94176 655.13867 167.0918 C 654.98076 182.3392 656.15385 185.94587 662.24414 188.92188 C 665.39026 190.45924 666.5456 190.56758 669.47852 189.59961 C 676.34452 187.33363 677 185.37122 677 167.0918 C 677 152.2107 676.82893 150.6448 674.9375 148.24023 C 673.04301 145.83178 670.07503 144.67165 667.02539 144.56836 z M 1267.0254 144.56836 C 1261.9427 144.39621 1256.6328 147.15862 1255.6895 151.9668 C 1255.4601 153.13595 1255.2128 159.94176 1255.1387 167.0918 C 1254.9808 182.3392 1256.1538 185.94587 1262.2441 188.92188 C 1265.3903 190.45924 1266.5456 190.56758 1269.4785 189.59961 C 1276.3445 187.33363 1277 185.37122 1277 167.0918 C 1277 152.2107 1276.8289 150.6448 1274.9375 148.24023 C 1273.043 145.83178 1270.075 144.67165 1267.0254 144.56836 z M 67.025391 145.89062 C 61.942658 145.71847 56.632847 148.48088 55.689453 153.28906 C 55.460149 154.45821 55.212751 161.26403 55.138672 168.41406 C 54.980763 183.66147 56.153848 187.26814 62.244141 190.24414 C 65.390257 191.7815 66.545602 191.88985 69.478516 190.92188 C 76.344519 188.6559 77 186.69348 77 168.41406 C 77 153.53296 76.828927 151.96706 74.9375 149.5625 C 73.043007 147.15405 70.07503 145.99392 67.025391 145.89062 z M 851.24805 155.60352 C 847.64284 155.69726 844.19264 157.46248 842.39648 160.70312 C 841.37654 162.54364 841.06174 170.44784 841.03906 195.0918 C 841.00936 225.08091 841.12907 227.29236 842.95508 230.28711 C 845.74229 234.8583 851.3921 236.44883 856.40039 234.07227 C 863.0332 230.92483 863.11297 230.42225 862.78906 193.98242 L 862.5 161.42578 L 859.23438 158.50977 C 856.94931 156.46886 854.0521 155.5306 851.24805 155.60352 z M 1451.248 155.60352 C 1447.6428 155.69726 1444.1926 157.46247 1442.3965 160.70312 L 1442.3945 160.70312 C 1441.3746 162.54364 1441.0617 170.44784 1441.0391 195.0918 C 1441.0094 225.08091 1441.1291 227.29236 1442.9551 230.28711 C 1445.7423 234.8583 1451.3921 236.44883 1456.4004 234.07227 C 1463.0332 230.92483 1463.113 230.42225 1462.7891 193.98242 L 1462.5 161.42578 L 1459.2344 158.50977 C 1456.9493 156.46886 1454.0521 155.53061 1451.248 155.60352 z M 251.24805 156.92578 C 247.64284 157.01952 244.19264 158.78473 242.39648 162.02539 C 241.37654 163.86591 241.06174 171.77011 241.03906 196.41406 C 241.00936 226.40318 241.13103 228.61658 242.95703 231.61133 C 245.74424 236.18252 251.3921 237.7711 256.40039 235.39453 C 263.0332 232.24709 263.11297 231.74451 262.78906 195.30469 L 262.5 162.74805 L 259.23438 159.83203 C 256.94931 157.79113 254.0521 156.85287 251.24805 156.92578 z M 994.05078 168.5918 C 989.49834 168.5918 985.05762 171.23958 983.46289 174.90625 C 981.41582 179.6132 981.35389 271.11024 983.39453 275.99414 C 986.38293 283.14637 995.20158 285.00943 1000.8945 279.69141 L 1004 276.78906 L 1004 226.0918 L 1004 175.39258 L 1000.5996 171.99219 C 998.17225 169.56486 996.29941 168.5918 994.05078 168.5918 z M 1594.0508 168.5918 C 1589.4983 168.5918 1585.0576 171.23958 1583.4629 174.90625 C 1581.4158 179.6132 1581.3539 271.11024 1583.3945 275.99414 C 1586.3829 283.14637 1595.2016 285.00943 1600.8945 279.69141 L 1604 276.78906 L 1604 226.0918 L 1604 175.39258 L 1600.5996 171.99219 C 1598.1722 169.56486 1596.2994 168.5918 1594.0508 168.5918 z M 394.05078 169.91406 C 389.49834 169.91406 385.05958 172.5638 383.46484 176.23047 L 383.46289 176.23047 C 381.41582 180.93742 381.35389 272.4325 383.39453 277.31641 C 386.38293 284.46863 395.20158 286.33169 400.89453 281.01367 L 404 278.11328 L 404 227.41406 L 404 176.71484 L 400.59961 173.31445 C 398.17225 170.88713 396.29941 169.91406 394.05078 169.91406 z M 758.94531 191.03125 C 754.71119 191.03554 751.03186 193.75064 749.14648 198.59375 C 748.53174 200.17276 748.36826 224.84554 748.70312 265.5918 C 749.28755 336.73532 748.9616 333.42461 755.68164 336.23242 C 760.23231 338.13383 763.98212 337.2652 767.60938 333.4707 L 770.5 330.44727 L 770.18555 264.26953 C 769.8384 191.06023 770.19634 194.82501 763.31836 191.95117 C 761.82937 191.32903 760.35669 191.02982 758.94531 191.03125 z M 1358.9453 191.03125 C 1354.7112 191.03554 1351.0319 193.75064 1349.1465 198.59375 C 1348.5317 200.17276 1348.3683 224.84554 1348.7031 265.5918 C 1349.2876 336.73532 1348.9616 333.42461 1355.6816 336.23242 C 1360.2323 338.13383 1363.9821 337.2652 1367.6094 333.4707 L 1370.5 330.44727 L 1370.1855 264.26953 C 1369.8384 191.06023 1370.1963 194.82501 1363.3184 191.95117 C 1361.8294 191.32903 1360.3567 191.02982 1358.9453 191.03125 z M 158.94531 192.35352 C 154.71119 192.3578 151.03186 195.07291 149.14648 199.91602 C 148.53174 201.49503 148.36826 226.16781 148.70312 266.91406 C 149.28755 338.05758 148.9616 334.74688 155.68164 337.55469 C 160.23231 339.45609 163.98212 338.58746 167.60938 334.79297 L 170.5 331.76953 L 170.18555 265.5918 C 169.8384 192.3825 170.19634 196.14923 163.31836 193.27539 C 161.82937 192.65325 160.35669 192.35209 158.94531 192.35352 z "
       transform="matrix(0.26458333,0,0,0.26458333,38.278291,58.71743)" />
  </g>
</svg>
