<?xml version="1.0" encoding="UTF-8" standalone="no"?>
<!-- Created with Inkscape (http://www.inkscape.org/) -->

<svg
   xmlns:dc="http://purl.org/dc/elements/1.1/"
   xmlns:cc="http://creativecommons.org/ns#"
   xmlns:rdf="http://www.w3.org/1999/02/22-rdf-syntax-ns#"
   xmlns:svg="http://www.w3.org/2000/svg"
   xmlns="http://www.w3.org/2000/svg"
   xmlns:sodipodi="http://sodipodi.sourceforge.net/DTD/sodipodi-0.dtd"
   xmlns:inkscape="http://www.inkscape.org/namespaces/inkscape"
   width="13.546544mm"
   height="13.546544mm"
   viewBox="0 0 13.546545 13.546544"
   version="1.1"
   id="svg2078"
   inkscape:version="0.92.5 (2060ec1f9f, 2020-04-08)"
   sodipodi:docname="icon-youtube-update.svg">
  <defs
     id="defs2072" />
  <sodipodi:namedview
     id="base"
     pagecolor="#ffffff"
     bordercolor="#666666"
     borderopacity="1.0"
     inkscape:pageopacity="0.0"
     inkscape:pageshadow="2"
     inkscape:zoom="2.3456786"
     inkscape:cx="-96.584593"
     inkscape:cy="50.950028"
     inkscape:document-units="mm"
     inkscape:current-layer="layer1"
     showgrid="false"
     fit-margin-top="0"
     fit-margin-left="0"
     fit-margin-right="0"
     fit-margin-bottom="0"
     inkscape:window-width="1920"
     inkscape:window-height="1009"
     inkscape:window-x="-8"
     inkscape:window-y="-8"
     inkscape:window-maximized="1" />
  <metadata
     id="metadata2075">
    <rdf:RDF>
      <cc:Work
         rdf:about="">
        <dc:format>image/svg+xml</dc:format>
        <dc:type
           rdf:resource="http://purl.org/dc/dcmitype/StillImage" />
        <dc:title></dc:title>
      </cc:Work>
    </rdf:RDF>
  </metadata>
  <g
     inkscape:label="Layer 1"
     inkscape:groupmode="layer"
     id="layer1"
     transform="translate(-53.576565,-148.76732)">
    <rect
       style="opacity:1;fill:none;fill-opacity:1;stroke:none;stroke-width:3.89115644;stroke-linecap:square;stroke-linejoin:miter;stroke-miterlimit:4;stroke-dasharray:none;stroke-dashoffset:0;stroke-opacity:1;paint-order:stroke fill markers"
       id="rect7657"
       width="13.546544"
       height="13.546544"
       x="53.576565"
       y="148.76732" />
    <g
       id="g5360"
       transform="matrix(0.26458333,0,0,0.26458333,11.090985,108.62575)">
      <g
         id="g4167"
         transform="matrix(5.9026317,0,0,5.9026317,521.39665,-711.31763)">
        <path
           inkscape:connector-curvature="0"
           id="path4156"
           d="m -56.794098,147.68677 c 0,0 -2.253652,0 -2.819289,0.14698 -0.302862,0.0846 -0.552244,0.33401 -0.636867,0.64132 -0.146977,0.56564 -0.14698,1.73703 -0.14698,1.73703 0,0 3e-6,1.17583 0.14698,1.73257 0.08462,0.30731 0.329552,0.55224 0.636867,0.63686 0.570091,0.15143 2.819289,0.15144 2.819289,0.15144 0,0 2.258119,0 2.823744,-0.14698 0.307318,-0.0846 0.552242,-0.3251 0.632411,-0.63686 0.151432,-0.5612 0.151437,-1.73257 0.151437,-1.73257 0,0 0.0045,-1.17585 -0.151437,-1.74149 -0.08017,-0.30731 -0.325093,-0.55223 -0.632411,-0.63241 -0.565625,-0.15588 -2.823744,-0.15589 -2.823744,-0.15589 z m -0.717076,1.44307 1.875092,1.08226 -1.875092,1.07781 z"
           style="fill:#ff24ff;fill-opacity:1;fill-rule:nonzero;stroke:none;stroke-width:0.03564842" />
      </g>
    </g>
  </g>
</svg>
