<?xml version="1.0" encoding="UTF-8" standalone="no"?>
<!-- Created with Inkscape (http://www.inkscape.org/) -->

<svg
   width="64"
   height="64"
   viewBox="0 0 16.933333 16.933333"
   version="1.1"
   id="svg5"
   sodipodi:docname="twitter-connection.svg"
   inkscape:version="1.1 (c4e8f9e, 2021-05-24)"
   xmlns:inkscape="http://www.inkscape.org/namespaces/inkscape"
   xmlns:sodipodi="http://sodipodi.sourceforge.net/DTD/sodipodi-0.dtd"
   xmlns="http://www.w3.org/2000/svg"
   xmlns:svg="http://www.w3.org/2000/svg">
  <sodipodi:namedview
     id="namedview2146"
     pagecolor="#505050"
     bordercolor="#ffffff"
     borderopacity="1"
     inkscape:pageshadow="0"
     inkscape:pageopacity="0"
     inkscape:pagecheckerboard="1"
     showgrid="false"
     inkscape:zoom="9.859375"
     inkscape:cx="30.935024"
     inkscape:cy="34.637084"
     inkscape:window-width="1440"
     inkscape:window-height="790"
     inkscape:window-x="0"
     inkscape:window-y="25"
     inkscape:window-maximized="0"
     inkscape:current-layer="svg5" />
  <defs
     id="defs2" />
  <g
     id="layer1"
     style="fill:#ffffff;fill-opacity:1">
    <g
       id="g1314"
       transform="scale(0.03572946)"
       style="fill:#ffffff;fill-opacity:1" />
    <g
       id="g1316"
       transform="scale(0.03572946)"
       style="fill:#ffffff;fill-opacity:1" />
    <g
       id="g1318"
       transform="scale(0.03572946)"
       style="fill:#ffffff;fill-opacity:1" />
    <g
       id="g1320"
       transform="scale(0.03572946)"
       style="fill:#ffffff;fill-opacity:1" />
    <g
       id="g1322"
       transform="scale(0.03572946)"
       style="fill:#ffffff;fill-opacity:1" />
    <g
       id="g1324"
       transform="scale(0.03572946)"
       style="fill:#ffffff;fill-opacity:1" />
    <g
       id="g1326"
       transform="scale(0.03572946)"
       style="fill:#ffffff;fill-opacity:1" />
    <g
       id="g1328"
       transform="scale(0.03572946)"
       style="fill:#ffffff;fill-opacity:1" />
    <g
       id="g1330"
       transform="scale(0.03572946)"
       style="fill:#ffffff;fill-opacity:1" />
    <g
       id="g1332"
       transform="scale(0.03572946)"
       style="fill:#ffffff;fill-opacity:1" />
    <g
       id="g1334"
       transform="scale(0.03572946)"
       style="fill:#ffffff;fill-opacity:1" />
    <g
       id="g1336"
       transform="scale(0.03572946)"
       style="fill:#ffffff;fill-opacity:1" />
    <g
       id="g1338"
       transform="scale(0.03572946)"
       style="fill:#ffffff;fill-opacity:1" />
    <g
       id="g1340"
       transform="scale(0.03572946)"
       style="fill:#ffffff;fill-opacity:1" />
    <g
       id="g1342"
       transform="scale(0.03572946)"
       style="fill:#ffffff;fill-opacity:1" />
    <g
       id="g883"
       transform="scale(0.05812643)"
       style="fill:#ffffff;fill-opacity:1">
      <g
         id="g830"
         style="fill:#ffffff;fill-opacity:1" />
      <g
         id="g832"
         style="fill:#ffffff;fill-opacity:1" />
      <g
         id="g834"
         style="fill:#ffffff;fill-opacity:1" />
      <g
         id="g836"
         style="fill:#ffffff;fill-opacity:1" />
      <g
         id="g838"
         style="fill:#ffffff;fill-opacity:1" />
      <g
         id="g840"
         style="fill:#ffffff;fill-opacity:1" />
      <g
         id="g842"
         style="fill:#ffffff;fill-opacity:1" />
      <g
         id="g844"
         style="fill:#ffffff;fill-opacity:1" />
      <g
         id="g846"
         style="fill:#ffffff;fill-opacity:1" />
      <g
         id="g848"
         style="fill:#ffffff;fill-opacity:1" />
      <g
         id="g850"
         style="fill:#ffffff;fill-opacity:1" />
      <g
         id="g852"
         style="fill:#ffffff;fill-opacity:1" />
      <g
         id="g854"
         style="fill:#ffffff;fill-opacity:1" />
      <g
         id="g856"
         style="fill:#ffffff;fill-opacity:1" />
      <g
         id="g858"
         style="fill:#ffffff;fill-opacity:1" />
      <g
         id="g1008"
         transform="matrix(2.5965185,0,0,2.5965185,-0.00259276,2.3293962e-6)"
         style="fill:#ffffff;fill-opacity:1">
        <path
           id="path1006"
           style="fill:#ffffff;fill-opacity:1"
           d="m 90.461,40.316 c -2.404,1.066 -4.99,1.787 -7.702,2.109 2.769,-1.659 4.894,-4.284 5.897,-7.417 -2.591,1.537 -5.462,2.652 -8.515,3.253 -2.446,-2.605 -5.931,-4.233 -9.79,-4.233 -7.404,0 -13.409,6.005 -13.409,13.409 0,1.051 0.119,2.074 0.349,3.056 -11.144,-0.559 -21.025,-5.897 -27.639,-14.012 -1.154,1.98 -1.816,4.285 -1.816,6.742 0,4.651 2.369,8.757 5.965,11.161 -2.197,-0.069 -4.266,-0.672 -6.073,-1.679 -0.001,0.057 -0.001,0.114 -0.001,0.17 0,6.497 4.624,11.916 10.757,13.147 -1.124,0.308 -2.311,0.471 -3.532,0.471 -0.866,0 -1.705,-0.083 -2.523,-0.239 1.706,5.326 6.657,9.203 12.526,9.312 -4.59,3.597 -10.371,5.74 -16.655,5.74 -1.08,0 -2.15,-0.063 -3.197,-0.188 5.931,3.806 12.981,6.025 20.553,6.025 24.664,0 38.152,-20.432 38.152,-38.153 0,-0.581 -0.013,-1.16 -0.039,-1.734 2.622,-1.89 4.895,-4.251 6.692,-6.94 z m 21.736,15.782001 A 56.098002,56.098002 0 0 1 56.099001,112.196 56.098002,56.098002 0 0 1 9.9855248e-4,56.098001 56.098002,56.098002 0 0 1 56.099001,-8.971229e-7 56.098002,56.098002 0 0 1 112.197,56.098001 Z" />
      </g>
      <g
         id="g1012"
         transform="matrix(2.5965185,0,0,2.5965185,-0.00259276,2.3293962e-6)"
         style="fill:#ffffff;fill-opacity:1" />
      <g
         id="g1014"
         transform="matrix(2.5965185,0,0,2.5965185,-0.00259276,2.3293962e-6)"
         style="fill:#ffffff;fill-opacity:1" />
      <g
         id="g1016"
         transform="matrix(2.5965185,0,0,2.5965185,-0.00259276,2.3293962e-6)"
         style="fill:#ffffff;fill-opacity:1" />
      <g
         id="g1018"
         transform="matrix(2.5965185,0,0,2.5965185,-0.00259276,2.3293962e-6)"
         style="fill:#ffffff;fill-opacity:1" />
      <g
         id="g1020"
         transform="matrix(2.5965185,0,0,2.5965185,-0.00259276,2.3293962e-6)"
         style="fill:#ffffff;fill-opacity:1" />
      <g
         id="g1022"
         transform="matrix(2.5965185,0,0,2.5965185,-0.00259276,2.3293962e-6)"
         style="fill:#ffffff;fill-opacity:1" />
      <g
         id="g1024"
         transform="matrix(2.5965185,0,0,2.5965185,-0.00259276,2.3293962e-6)"
         style="fill:#ffffff;fill-opacity:1" />
      <g
         id="g1026"
         transform="matrix(2.5965185,0,0,2.5965185,-0.00259276,2.3293962e-6)"
         style="fill:#ffffff;fill-opacity:1" />
      <g
         id="g1028"
         transform="matrix(2.5965185,0,0,2.5965185,-0.00259276,2.3293962e-6)"
         style="fill:#ffffff;fill-opacity:1" />
      <g
         id="g1030"
         transform="matrix(2.5965185,0,0,2.5965185,-0.00259276,2.3293962e-6)"
         style="fill:#ffffff;fill-opacity:1" />
      <g
         id="g1032"
         transform="matrix(2.5965185,0,0,2.5965185,-0.00259276,2.3293962e-6)"
         style="fill:#ffffff;fill-opacity:1" />
      <g
         id="g1034"
         transform="matrix(2.5965185,0,0,2.5965185,-0.00259276,2.3293962e-6)"
         style="fill:#ffffff;fill-opacity:1" />
      <g
         id="g1036"
         transform="matrix(2.5965185,0,0,2.5965185,-0.00259276,2.3293962e-6)"
         style="fill:#ffffff;fill-opacity:1" />
      <g
         id="g1038"
         transform="matrix(2.5965185,0,0,2.5965185,-0.00259276,2.3293962e-6)"
         style="fill:#ffffff;fill-opacity:1" />
      <g
         id="g1040"
         transform="matrix(2.5965185,0,0,2.5965185,-0.00259276,2.3293962e-6)"
         style="fill:#ffffff;fill-opacity:1" />
    </g>
  </g>
</svg>
